<?xml version="1.0" encoding="utf-8"?>
<!-- Generator: Adobe Illustrator 23.0.1, SVG Export Plug-In . SVG Version: 6.00 Build 0)  -->
<svg version="1.1" id="Calque_1" xmlns="http://www.w3.org/2000/svg" xmlns:xlink="http://www.w3.org/1999/xlink" x="0px" y="0px"
	 viewBox="0 0 200 52.83" style="enable-background:new 0 0 200 52.83;" xml:space="preserve">
<g>
	<path d="M44.31,7.5h-6.68v8.49h-3.7v5.39h3.7v19.61c0,2.42,0.68,4.21,2.03,5.36c1.35,1.15,3.28,1.73,5.78,1.73
		c0.83,0,1.49-0.03,1.97-0.09c0.48-0.06,0.93-0.15,1.37-0.26v-5.62h-2.21c-1.51,0-2.27-0.86-2.27-2.58V21.38h4.47v-5.39h-4.47V7.5z"
		/>
	<rect x="53.2" y="15.99" width="6.68" height="31.5"/>
	<rect x="53.2" y="5.22" width="6.68" height="5.97"/>
	<path d="M86.77,26.77c-0.04-1.68-0.25-3.22-0.63-4.63c-0.38-1.41-0.97-2.61-1.79-3.6c-0.82-1-1.88-1.77-3.19-2.31
		c-1.31-0.55-2.9-0.82-4.77-0.82c-1.91,0-3.52,0.28-4.83,0.85c-1.31,0.57-2.39,1.37-3.22,2.4c-0.83,1.03-1.43,2.27-1.79,3.72
		c-0.36,1.44-0.54,3.03-0.54,4.74v9.25c0,1.72,0.18,3.3,0.54,4.74c0.36,1.44,0.95,2.68,1.79,3.72c0.83,1.03,1.91,1.84,3.22,2.4
		c1.31,0.57,2.92,0.85,4.83,0.85c1.91,0,3.52-0.28,4.83-0.85c1.31-0.57,2.39-1.37,3.22-2.4c0.83-1.03,1.43-2.27,1.79-3.72
		c0.36-1.44,0.54-3.02,0.54-4.74v-0.82h-6.68v1.99c0,1.84-0.32,3.15-0.95,3.95c-0.64,0.8-1.55,1.2-2.74,1.2s-2.11-0.4-2.74-1.2
		c-0.64-0.8-0.95-2.12-0.95-3.95V25.95c0-1.83,0.32-3.15,0.95-3.95c0.64-0.8,1.55-1.2,2.74-1.2s2.11,0.4,2.74,1.2
		c0.64,0.8,0.95,2.12,0.95,3.95v0.82H86.77z"/>
	<path d="M100.61,7.5h-6.68v8.49h-3.7v5.39h3.7v19.61c0,2.42,0.68,4.21,2.03,5.36c1.35,1.15,3.28,1.73,5.78,1.73
		c0.83,0,1.49-0.03,1.97-0.09c0.48-0.06,0.93-0.15,1.37-0.26v-5.62h-2.21c-1.51,0-2.27-0.86-2.27-2.58V21.38h4.47v-5.39h-4.47V7.5z"
		/>
	<path d="M129.17,44.15v-20.2c0-2.89-0.84-5.04-2.53-6.44c-1.69-1.41-4.09-2.11-7.19-2.11c-3.14,0-5.67,0.84-7.57,2.52
		c-1.91,1.68-2.96,4.12-3.16,7.32h6.68c0.08-1.37,0.36-2.45,0.83-3.25c0.48-0.8,1.47-1.2,2.98-1.2c2.19,0,3.28,1.35,3.28,4.04v1.87
		c-2.39,0.9-4.47,1.82-6.26,2.78c-1.79,0.96-3.28,2-4.47,3.13c-1.19,1.13-2.08,2.38-2.65,3.75c-0.58,1.37-0.86,2.91-0.86,4.63
		c0,2.03,0.57,3.72,1.7,5.06c1.13,1.35,2.83,2.02,5.1,2.02c1.63,0,3.02-0.25,4.17-0.76c1.15-0.51,2.37-1.27,3.64-2.28
		c0.04,0.39,0.1,0.79,0.18,1.2c0.08,0.41,0.14,0.83,0.18,1.26h6.38c-0.08-0.55-0.17-1.11-0.27-1.7
		C129.22,45.21,129.17,44.66,129.17,44.15z M122.49,39.76c-0.56,0.78-1.21,1.46-1.97,2.05c-0.76,0.59-1.59,0.88-2.5,0.88
		c-1.03,0-1.81-0.22-2.33-0.67c-0.52-0.45-0.78-1.18-0.78-2.2c0-0.7,0.11-1.37,0.33-1.99c0.22-0.62,0.61-1.27,1.16-1.93
		c0.56-0.66,1.33-1.35,2.33-2.05c0.99-0.7,2.25-1.48,3.76-2.34V39.76z"/>
	<rect x="135.97" y="5.22" width="6.68" height="42.27"/>
	<path d="M167.22,18.66c-0.83-1.03-1.91-1.83-3.22-2.4c-1.31-0.57-2.92-0.85-4.83-0.85c-1.91,0-3.52,0.28-4.83,0.85
		c-1.31,0.57-2.39,1.37-3.22,2.4c-0.83,1.03-1.43,2.27-1.79,3.72c-0.36,1.44-0.54,3.03-0.54,4.74v9.25c0,1.72,0.18,3.3,0.54,4.74
		c0.36,1.44,0.95,2.68,1.79,3.72c0.83,1.03,1.91,1.84,3.22,2.4c1.31,0.57,2.92,0.85,4.83,0.85c1.87,0,3.45-0.27,4.74-0.82
		c1.29-0.55,2.36-1.32,3.19-2.31c0.83-1,1.44-2.18,1.82-3.54c0.38-1.37,0.59-2.89,0.63-4.57h-6.68v0.7c0,1.84-0.32,3.15-0.95,3.95
		c-0.64,0.8-1.55,1.2-2.74,1.2c-1.19,0-2.11-0.4-2.74-1.2c-0.64-0.8-0.95-2.12-0.95-3.95v-4.57h14.07v-5.86
		c0-1.72-0.18-3.3-0.54-4.74C168.65,20.93,168.05,19.69,167.22,18.66z M162.87,27.59h-7.39v-1.64c0-1.83,0.32-3.15,0.95-3.95
		c0.64-0.8,1.55-1.2,2.74-1.2c1.19,0,2.11,0.4,2.74,1.2c0.64,0.8,0.95,2.12,0.95,3.95V27.59z"/>
	<path d="M192.65,35.46c-0.62-1.19-1.39-2.24-2.33-3.16c-0.93-0.92-1.94-1.76-3.01-2.52c-1.07-0.76-2.08-1.48-3.01-2.17
		c-0.93-0.68-1.71-1.37-2.33-2.05c-0.62-0.68-0.92-1.43-0.92-2.25s0.27-1.44,0.81-1.87c0.54-0.43,1.24-0.64,2.12-0.64
		c2.07,0,3.34,1.31,3.82,3.92l5.67-0.94c-0.52-2.46-1.62-4.47-3.31-6.03c-1.69-1.56-3.85-2.34-6.47-2.34c-1.27,0-2.45,0.2-3.52,0.61
		c-1.07,0.41-2.02,0.99-2.83,1.73c-0.82,0.74-1.45,1.63-1.91,2.66c-0.46,1.03-0.69,2.18-0.69,3.43c0,1.44,0.31,2.71,0.92,3.81
		c0.62,1.09,1.39,2.09,2.33,2.99c0.93,0.9,1.94,1.72,3.01,2.46c1.07,0.74,2.08,1.46,3.01,2.17c0.93,0.7,1.71,1.43,2.33,2.2
		c0.62,0.76,0.92,1.59,0.92,2.49c0,0.9-0.28,1.58-0.83,2.05c-0.56,0.47-1.27,0.7-2.15,0.7c-1.51,0-2.57-0.5-3.19-1.49
		c-0.62-1-1.02-2.16-1.22-3.48l-5.84,1.58c0.52,2.77,1.61,4.93,3.28,6.47c1.67,1.54,3.98,2.31,6.92,2.31c1.35,0,2.6-0.18,3.76-0.53
		c1.15-0.35,2.15-0.89,2.98-1.61c0.83-0.72,1.48-1.61,1.94-2.66c0.46-1.05,0.69-2.28,0.69-3.69
		C193.58,38.03,193.27,36.65,192.65,35.46z"/>
</g>
<path d="M22.93,9.21c-0.01,0.12-0.02,0.23-0.02,0.35v0.01c-0.01,0.09-0.02,0.19-0.03,0.28v0.01c-0.42,3.54-2.85,6.46-6.12,7.58
	c-0.11,0.04-0.23,0.08-0.34,0.11c-0.01,0-0.01,0-0.02,0.01c-0.06,0.02-0.12,0.04-0.18,0.05c-0.07,0.02-0.14,0.04-0.2,0.05
	c-0.07,0.02-0.14,0.03-0.21,0.05c-0.07,0.02-0.14,0.03-0.21,0.05c-0.07,0.01-0.14,0.03-0.21,0.04c-0.04,0.01-0.08,0.02-0.13,0.02
	c-0.04,0.01-0.08,0.01-0.12,0.02c-0.09,0.01-0.18,0.02-0.27,0.03c-0.02,0-0.04,0.01-0.06,0.01c-0.02,0-0.05,0.01-0.07,0.01
	c-0.01,0-0.02,0-0.04,0c-0.07,0.01-0.13,0.01-0.2,0.02c-0.04,0-0.08,0.01-0.12,0.01c-0.04,0-0.08,0.01-0.13,0.01
	c-0.08,0-0.16,0.01-0.24,0.01c-0.16,0.01-0.32,0.01-0.48,0c-0.08,0-0.16-0.01-0.24-0.01c-0.08,0-0.16-0.01-0.24-0.02
	c-0.08-0.01-0.16-0.02-0.24-0.02c-0.02,0-0.04-0.01-0.06-0.01c-0.11-0.01-0.23-0.03-0.34-0.04c-0.01,0-0.02,0-0.03,0
	c-0.07-0.01-0.13-0.02-0.2-0.03c-0.01,0-0.01,0-0.02,0c-0.07-0.01-0.14-0.03-0.21-0.04c-0.14-0.03-0.28-0.06-0.42-0.09
	c-0.07-0.02-0.14-0.04-0.21-0.05c-0.06-0.02-0.12-0.03-0.18-0.05c-0.01,0-0.01,0-0.02-0.01c-0.11-0.03-0.23-0.07-0.34-0.11
	c-0.04-0.02-0.08-0.03-0.12-0.04c-0.01-0.01-0.03-0.01-0.04-0.02c-0.03-0.01-0.05-0.02-0.08-0.03c-0.02-0.01-0.05-0.02-0.07-0.03
	c0,0-0.01,0-0.01,0c-0.02-0.01-0.04-0.02-0.06-0.02c-0.02-0.01-0.04-0.02-0.06-0.03c-0.01,0-0.01,0-0.02-0.01c0,0-0.01,0-0.01-0.01
	c-0.02-0.01-0.05-0.02-0.08-0.03c-0.01,0-0.01-0.01-0.02-0.01c-0.01,0-0.01,0-0.02-0.01c-2.98-1.26-5.16-4.06-5.54-7.4
	C4.65,9.72,4.65,9.65,4.64,9.56V9.56C4.63,9.44,4.62,9.32,4.61,9.21C4.61,9.06,4.6,8.91,4.6,8.77c0-0.29,0.01-0.57,0.04-0.86
	c0-0.02,0-0.04,0.01-0.05l0.03-0.2c0-0.01,0-0.02,0-0.03c0-0.01,0-0.01,0-0.02C4.79,6.82,5.22,6.1,5.89,5.66
	c0.18-0.12,0.39-0.22,0.6-0.29c0.28-0.1,0.58-0.15,0.89-0.15c0.02,0,0.04,0,0.05,0C7.83,5.23,8.22,5.33,8.56,5.5
	C8.74,5.58,8.9,5.69,9.05,5.81c1.36,0.81,2.98,1.3,4.72,1.37c1.74-0.06,3.36-0.56,4.72-1.37c0.15-0.12,0.32-0.23,0.49-0.32
	c0.34-0.17,0.73-0.27,1.13-0.28c0.02,0,0.04,0,0.06,0c0.31,0,0.61,0.05,0.89,0.15c0.21,0.07,0.41,0.17,0.6,0.29
	c0.67,0.44,1.09,1.16,1.21,1.95c0,0.01,0,0.01,0,0.02c0,0.01,0,0.02,0,0.03l0.03,0.2L22.9,7.9v0.01c0,0.02,0,0.04,0.01,0.06
	c0.01,0.08,0.01,0.16,0.02,0.23c0.01,0.12,0.01,0.23,0.02,0.35C22.95,8.77,22.94,8.99,22.93,9.21z"/>
<circle cx="13.77" cy="41.7" r="6.38"/>
<path d="M22.01,25.36l-0.82,0.82c-0.46,0.46-1.19,0.46-1.65,0l-1.65-1.65c-0.46-0.46-1.19-0.46-1.65,0l-1.65,1.65
	c-0.46,0.46-1.19,0.46-1.65,0l-1.65-1.65c-0.46-0.46-1.19-0.46-1.65,0l-1.65,1.65c-0.46,0.46-1.19,0.46-1.65,0l-0.82-0.82
	c-0.46-0.46-1.19-0.46-1.65,0c-0.46,0.46-0.46,1.19,0,1.65l2.47,2.47c0.46,0.46,1.19,0.46,1.65,0l1.65-1.65
	c0.46-0.46,1.19-0.46,1.65,0l1.65,1.65c0.46,0.46,1.19,0.46,1.65,0l1.65-1.65c0.46-0.46,1.19-0.46,1.65,0l1.65,1.65
	c0.46,0.46,1.19,0.46,1.65,0l2.47-2.47c0.46-0.46,0.46-1.19,0-1.65C23.2,24.9,22.46,24.9,22.01,25.36z"/>
</svg>
