<?xml version="1.0" encoding="utf-8"?>
<!-- Generator: Adobe Illustrator 23.0.1, SVG Export Plug-In . SVG Version: 6.00 Build 0)  -->
<svg version="1.1" id="Calque_1" xmlns="http://www.w3.org/2000/svg" xmlns:xlink="http://www.w3.org/1999/xlink" x="0px" y="0px"
	 viewBox="0 0 200 52.8" style="enable-background:new 0 0 200 52.8;" xml:space="preserve">
<style type="text/css">
	.st0{fill:#FFFFFF;}
</style>
<g>
	<path class="st0" d="M44.3,7.5h-6.7V16h-3.7v5.4h3.7V41c0,2.4,0.7,4.2,2,5.4s3.3,1.7,5.8,1.7c0.8,0,1.5,0,2-0.1s0.9-0.2,1.4-0.3
		v-5.6h-2.2c-1.5,0-2.3-0.9-2.3-2.6V21.4h4.5V16h-4.5L44.3,7.5L44.3,7.5z"/>
	<rect x="53.2" y="16" class="st0" width="6.7" height="31.5"/>
	<rect x="53.2" y="5.2" class="st0" width="6.7" height="6"/>
	<path class="st0" d="M86.8,26.8c0-1.7-0.2-3.2-0.6-4.6c-0.4-1.4-1-2.6-1.8-3.6c-0.8-1-1.9-1.8-3.2-2.3c-1.3-0.6-2.9-0.8-4.8-0.8
		c-1.9,0-3.5,0.3-4.8,0.9c-1.3,0.6-2.4,1.4-3.2,2.4c-0.8,1-1.4,2.3-1.8,3.7c-0.4,1.4-0.5,3-0.5,4.7v9.2c0,1.7,0.2,3.3,0.5,4.7
		c0.4,1.4,0.9,2.7,1.8,3.7c0.8,1,1.9,1.8,3.2,2.4c1.3,0.6,2.9,0.8,4.8,0.8s3.5-0.3,4.8-0.8c1.3-0.6,2.4-1.4,3.2-2.4
		c0.8-1,1.4-2.3,1.8-3.7c0.4-1.4,0.5-3,0.5-4.7v-0.8h-6.7v2c0,1.8-0.3,3.2-0.9,4c-0.6,0.8-1.6,1.2-2.7,1.2s-2.1-0.4-2.7-1.2
		c-0.6-0.8-0.9-2.1-0.9-4V26c0-1.8,0.3-3.1,0.9-4c0.6-0.8,1.6-1.2,2.7-1.2s2.1,0.4,2.7,1.2c0.6,0.8,0.9,2.1,0.9,4v0.8H86.8z"/>
	<path class="st0" d="M100.6,7.5h-6.7V16h-3.7v5.4h3.7V41c0,2.4,0.7,4.2,2,5.4s3.3,1.7,5.8,1.7c0.8,0,1.5,0,2-0.1s0.9-0.2,1.4-0.3
		v-5.6h-2.2c-1.5,0-2.3-0.9-2.3-2.6V21.4h4.5V16h-4.5L100.6,7.5L100.6,7.5z"/>
	<path class="st0" d="M129.2,44.2V24c0-2.9-0.8-5-2.5-6.4c-1.7-1.4-4.1-2.1-7.2-2.1c-3.1,0-5.7,0.8-7.6,2.5c-1.9,1.7-3,4.1-3.2,7.3
		h6.7c0.1-1.4,0.4-2.5,0.8-3.2c0.5-0.8,1.5-1.2,3-1.2c2.2,0,3.3,1.4,3.3,4v1.9c-2.4,0.9-4.5,1.8-6.3,2.8c-1.8,1-3.3,2-4.5,3.1
		s-2.1,2.4-2.7,3.8c-0.6,1.4-0.9,2.9-0.9,4.6c0,2,0.6,3.7,1.7,5.1c1.1,1.3,2.8,2,5.1,2c1.6,0,3-0.2,4.2-0.8s2.4-1.3,3.6-2.3
		c0,0.4,0.1,0.8,0.2,1.2s0.1,0.8,0.2,1.3h6.4c-0.1-0.5-0.2-1.1-0.3-1.7C129.2,45.2,129.2,44.7,129.2,44.2z M122.5,39.8
		c-0.6,0.8-1.2,1.5-2,2s-1.6,0.9-2.5,0.9c-1,0-1.8-0.2-2.3-0.7c-0.5-0.5-0.8-1.2-0.8-2.2c0-0.7,0.1-1.4,0.3-2
		c0.2-0.6,0.6-1.3,1.2-1.9c0.6-0.7,1.3-1.3,2.3-2c1-0.7,2.2-1.5,3.8-2.3C122.5,31.5,122.5,39.8,122.5,39.8z"/>
	<rect x="136" y="5.2" class="st0" width="6.7" height="42.3"/>
	<path class="st0" d="M167.2,18.7c-0.8-1-1.9-1.8-3.2-2.4s-2.9-0.9-4.8-0.9s-3.5,0.3-4.8,0.9c-1.3,0.6-2.4,1.4-3.2,2.4
		c-0.8,1-1.4,2.3-1.8,3.7c-0.4,1.4-0.5,3-0.5,4.7v9.2c0,1.7,0.2,3.3,0.5,4.7c0.4,1.4,0.9,2.7,1.8,3.7c0.8,1,1.9,1.8,3.2,2.4
		c1.3,0.6,2.9,0.8,4.8,0.8c1.9,0,3.4-0.3,4.7-0.8c1.3-0.5,2.4-1.3,3.2-2.3c0.8-1,1.4-2.2,1.8-3.5c0.4-1.4,0.6-2.9,0.6-4.6h-6.7v0.7
		c0,1.8-0.3,3.2-0.9,4c-0.6,0.8-1.6,1.2-2.7,1.2s-2.1-0.4-2.7-1.2c-0.6-0.8-0.9-2.1-0.9-4V33h14.1v-5.9c0-1.7-0.2-3.3-0.5-4.7
		C168.6,20.9,168.1,19.7,167.2,18.7z M162.9,27.6h-7.4V26c0-1.8,0.3-3.1,0.9-4c0.6-0.8,1.6-1.2,2.7-1.2s2.1,0.4,2.7,1.2
		c0.6,0.8,0.9,2.1,0.9,4L162.9,27.6L162.9,27.6z"/>
	<path class="st0" d="M192.6,35.5c-0.6-1.2-1.4-2.2-2.3-3.2c-0.9-0.9-1.9-1.8-3-2.5c-1.1-0.8-2.1-1.5-3-2.2c-0.9-0.7-1.7-1.4-2.3-2
		c-0.6-0.7-0.9-1.4-0.9-2.2s0.3-1.4,0.8-1.9s1.2-0.6,2.1-0.6c2.1,0,3.3,1.3,3.8,3.9l5.7-0.9c-0.5-2.5-1.6-4.5-3.3-6
		c-1.7-1.6-3.9-2.3-6.5-2.3c-1.3,0-2.4,0.2-3.5,0.6c-1.1,0.4-2,1-2.8,1.7c-0.8,0.7-1.4,1.6-1.9,2.7s-0.7,2.2-0.7,3.4
		c0,1.4,0.3,2.7,0.9,3.8c0.6,1.1,1.4,2.1,2.3,3c0.9,0.9,1.9,1.7,3,2.5c1.1,0.7,2.1,1.5,3,2.2c0.9,0.7,1.7,1.4,2.3,2.2
		c0.6,0.8,0.9,1.6,0.9,2.5s-0.3,1.6-0.8,2c-0.6,0.5-1.3,0.7-2.1,0.7c-1.5,0-2.6-0.5-3.2-1.5c-0.6-1-1-2.2-1.2-3.5l-5.8,1.6
		c0.5,2.8,1.6,4.9,3.3,6.5s4,2.3,6.9,2.3c1.4,0,2.6-0.2,3.8-0.5c1.1-0.3,2.1-0.9,3-1.6s1.5-1.6,1.9-2.7s0.7-2.3,0.7-3.7
		C193.6,38,193.3,36.7,192.6,35.5z"/>
</g>
<path class="st0" d="M22.9,9.2c0,0.1,0,0.2,0,0.4v0c0,0.1,0,0.2,0,0.3v0c-0.4,3.5-2.9,6.5-6.1,7.6c-0.1,0-0.2,0.1-0.3,0.1
	c0,0,0,0,0,0c-0.1,0-0.1,0-0.2,0c-0.1,0-0.1,0-0.2,0c-0.1,0-0.1,0-0.2,0c-0.1,0-0.1,0-0.2,0c-0.1,0-0.1,0-0.2,0c0,0-0.1,0-0.1,0
	c0,0-0.1,0-0.1,0c-0.1,0-0.2,0-0.3,0c0,0,0,0-0.1,0s-0.1,0-0.1,0c0,0,0,0,0,0c-0.1,0-0.1,0-0.2,0c0,0-0.1,0-0.1,0s-0.1,0-0.1,0
	c-0.1,0-0.2,0-0.2,0c-0.2,0-0.3,0-0.5,0c-0.1,0-0.2,0-0.2,0s-0.2,0-0.2,0s-0.2,0-0.2,0c0,0,0,0-0.1,0c-0.1,0-0.2,0-0.3,0
	c0,0,0,0,0,0c-0.1,0-0.1,0-0.2,0c0,0,0,0,0,0c-0.1,0-0.1,0-0.2,0c-0.1,0-0.3-0.1-0.4-0.1c-0.1,0-0.1,0-0.2,0c-0.1,0-0.1,0-0.2,0
	c0,0,0,0,0,0c-0.1,0-0.2-0.1-0.3-0.1c0,0-0.1,0-0.1,0c0,0,0,0,0,0c0,0-0.1,0-0.1,0c0,0-0.1,0-0.1,0h0c0,0,0,0-0.1,0c0,0,0,0-0.1,0
	c0,0,0,0,0,0c0,0,0,0,0,0c0,0-0.1,0-0.1,0c0,0,0,0,0,0s0,0,0,0C7.2,16,5,13.2,4.6,9.8c0-0.1,0-0.2,0-0.3l0,0c0-0.1,0-0.2,0-0.4
	c0-0.1,0-0.3,0-0.4c0-0.3,0-0.6,0-0.9c0,0,0,0,0-0.1l0-0.2c0,0,0,0,0,0s0,0,0,0c0.1-0.8,0.5-1.5,1.2-2c0.2-0.1,0.4-0.2,0.6-0.3
	c0.3-0.1,0.6-0.2,0.9-0.2c0,0,0,0,0.1,0c0.4,0,0.8,0.1,1.1,0.3c0.2,0.1,0.3,0.2,0.5,0.3c1.4,0.8,3,1.3,4.7,1.4
	c1.7-0.1,3.4-0.6,4.7-1.4c0.1-0.1,0.3-0.2,0.5-0.3c0.3-0.2,0.7-0.3,1.1-0.3c0,0,0,0,0.1,0c0.3,0,0.6,0.1,0.9,0.2
	c0.2,0.1,0.4,0.2,0.6,0.3c0.7,0.4,1.1,1.2,1.2,1.9c0,0,0,0,0,0c0,0,0,0,0,0l0,0.2v0.1v0c0,0,0,0,0,0.1c0,0.1,0,0.2,0,0.2
	c0,0.1,0,0.2,0,0.4C23,8.8,22.9,9,22.9,9.2z"/>
<circle class="st0" cx="13.8" cy="41.7" r="6.4"/>
<path class="st0" d="M22,25.4l-0.8,0.8c-0.5,0.5-1.2,0.5-1.6,0l-1.6-1.6c-0.5-0.5-1.2-0.5-1.6,0l-1.6,1.6c-0.5,0.5-1.2,0.5-1.6,0
	l-1.6-1.6c-0.5-0.5-1.2-0.5-1.6,0L8,26.2c-0.5,0.5-1.2,0.5-1.7,0l-0.8-0.8c-0.5-0.5-1.2-0.5-1.7,0s-0.5,1.2,0,1.6l2.5,2.5
	c0.5,0.5,1.2,0.5,1.7,0l1.7-1.6c0.5-0.5,1.2-0.5,1.6,0l1.6,1.6c0.5,0.5,1.2,0.5,1.6,0l1.6-1.6c0.5-0.5,1.2-0.5,1.6,0l1.6,1.6
	c0.5,0.5,1.2,0.5,1.6,0l2.5-2.5c0.5-0.5,0.5-1.2,0-1.6C23.2,24.9,22.5,24.9,22,25.4z"/>
</svg>
