<?xml version="1.0" encoding="utf-8"?>
<!-- Generator: Adobe Illustrator 23.0.1, SVG Export Plug-In . SVG Version: 6.00 Build 0)  -->
<svg version="1.1" id="icons" xmlns="http://www.w3.org/2000/svg" xmlns:xlink="http://www.w3.org/1999/xlink" x="0px" y="0px"
	 viewBox="0 0 50 50" style="enable-background:new 0 0 50 50;" xml:space="preserve">
<style type="text/css">
	.st0{fill-rule:evenodd;clip-rule:evenodd;}
</style>
<path id="exp1" class="st0" d="M48.2,19.09c-0.01,0.31-0.04,0.61-0.06,0.91v0.02c-0.02,0.25-0.05,0.5-0.08,0.74v0.01
	c-1.06,9.24-7.31,16.87-15.7,19.79c-0.29,0.1-0.58,0.2-0.87,0.29c-0.01,0.01-0.03,0.01-0.05,0.01c-0.15,0.05-0.31,0.1-0.47,0.14
	c-0.17,0.05-0.35,0.1-0.52,0.14c-0.18,0.04-0.36,0.09-0.53,0.13c-0.18,0.04-0.36,0.08-0.54,0.12c-0.18,0.03-0.36,0.07-0.54,0.1
	c-0.11,0.02-0.21,0.04-0.32,0.05c-0.1,0.02-0.2,0.03-0.3,0.05c-0.23,0.03-0.46,0.06-0.69,0.09c-0.06,0.01-0.11,0.01-0.16,0.02
	c-0.06,0.01-0.12,0.02-0.17,0.02c-0.03,0.01-0.06,0.01-0.1,0.01c-0.17,0.02-0.34,0.03-0.52,0.05c-0.1,0.01-0.2,0.02-0.3,0.03
	c-0.11,0-0.22,0.01-0.32,0.01c-0.21,0.01-0.41,0.02-0.62,0.02c-0.41,0.01-0.82,0.01-1.23,0c-0.21-0.01-0.41-0.01-0.62-0.02
	c-0.21-0.01-0.41-0.02-0.62-0.04c-0.2-0.02-0.41-0.04-0.61-0.06c-0.05-0.01-0.11-0.02-0.16-0.02c-0.29-0.03-0.58-0.07-0.86-0.11
	c-0.02-0.01-0.05-0.01-0.07-0.01c-0.17-0.03-0.34-0.06-0.51-0.09c-0.01,0-0.02,0-0.04-0.01c-0.18-0.03-0.36-0.07-0.54-0.1
	c-0.36-0.07-0.71-0.16-1.06-0.25c-0.18-0.04-0.35-0.09-0.53-0.14c-0.15-0.04-0.31-0.09-0.47-0.14c-0.01,0-0.03-0.01-0.05-0.01
	c-0.29-0.09-0.58-0.19-0.87-0.29c-0.1-0.04-0.21-0.07-0.31-0.11c-0.03-0.01-0.07-0.02-0.1-0.04c-0.07-0.02-0.14-0.05-0.21-0.08
	c-0.06-0.02-0.13-0.05-0.19-0.07c0-0.01-0.01-0.01-0.02-0.01c-0.05-0.02-0.11-0.04-0.16-0.06c-0.06-0.02-0.11-0.04-0.16-0.07
	c-0.02,0-0.03-0.01-0.05-0.02l-0.03-0.01c-0.06-0.02-0.13-0.05-0.19-0.08c-0.02-0.01-0.03-0.02-0.05-0.02
	c-0.01-0.01-0.02-0.01-0.04-0.02C7.9,36.68,2.32,29.38,1.36,20.65c-0.02-0.21-0.04-0.42-0.07-0.63V20c-0.02-0.3-0.05-0.61-0.06-0.91
	C1.21,18.7,1.2,18.32,1.2,17.93c0-0.76,0.03-1.5,0.1-2.24c0-0.05,0.01-0.1,0.01-0.14l0.07-0.53c0-0.02,0-0.04,0.01-0.07
	c0-0.01,0-0.02,0-0.04c0.29-2.06,1.38-3.94,3.09-5.08c0.47-0.31,0.99-0.57,1.53-0.77c0.71-0.26,1.48-0.4,2.28-0.4
	c0.05,0,0.09,0,0.14,0.01c1.05,0.02,2.03,0.27,2.91,0.72c0.45,0.23,0.87,0.5,1.26,0.82c3.48,2.11,7.63,3.4,12.1,3.57
	c4.47-0.16,8.62-1.45,12.1-3.57c0.39-0.32,0.81-0.6,1.26-0.82c0.88-0.45,1.86-0.7,2.91-0.72c0.05-0.01,0.1-0.01,0.14-0.01
	c0.8,0,1.57,0.14,2.28,0.4c0.54,0.19,1.06,0.45,1.53,0.77c1.72,1.14,2.8,3.02,3.09,5.08c0,0.01,0,0.02,0,0.04
	c0,0.02,0,0.04,0.01,0.07l0.07,0.53l0.01,0.12v0.02c0,0.05,0.01,0.11,0.01,0.16c0.02,0.2,0.03,0.41,0.04,0.61
	c0.02,0.3,0.03,0.61,0.04,0.92C48.23,17.95,48.23,18.52,48.2,19.09"/>
</svg>
