<?xml version="1.0" encoding="utf-8"?>
<!-- Generator: Adobe Illustrator 23.0.1, SVG Export Plug-In . SVG Version: 6.00 Build 0)  -->
<svg version="1.1" id="icons" xmlns="http://www.w3.org/2000/svg" xmlns:xlink="http://www.w3.org/1999/xlink" x="0px" y="0px"
	 viewBox="0 0 50 50" style="enable-background:new 0 0 50 50;" xml:space="preserve">
<style type="text/css">
	.st0{fill-rule:evenodd;clip-rule:evenodd;}
</style>
<path id="exp2" class="st0" d="M47.63,35.49c0,2.09-1.63,3.78-3.64,3.78c-0.48,0-0.94-0.09-1.36-0.27c0,0-0.01,0-0.02,0
	c-0.14-0.07-0.29-0.14-0.44-0.21c-0.02-0.01-0.04-0.03-0.07-0.03c-0.32-0.16-0.64-0.31-0.97-0.45c-0.32-0.15-0.66-0.29-0.99-0.43
	c-0.33-0.14-0.67-0.28-1.01-0.4c-0.29-0.12-0.58-0.22-0.88-0.32c-0.14-0.05-0.28-0.1-0.42-0.14c-0.22-0.08-0.44-0.16-0.67-0.22
	c-0.06-0.03-0.14-0.05-0.21-0.07c-0.31-0.1-0.63-0.19-0.94-0.28c-0.35-0.1-0.7-0.2-1.06-0.29c-0.02-0.01-0.03-0.01-0.06-0.02
	c-0.29-0.08-0.58-0.14-0.88-0.21c-0.28-0.07-0.55-0.13-0.83-0.18c-0.07-0.02-0.15-0.03-0.22-0.04c-0.21-0.05-0.41-0.09-0.63-0.12
	c-0.22-0.04-0.45-0.08-0.68-0.12c-0.04-0.01-0.08-0.02-0.12-0.02c-0.31-0.05-0.62-0.1-0.93-0.14c-1.91-0.27-3.89-0.42-5.89-0.42
	c-1.4,0-2.78,0.07-4.14,0.21c-0.22,0.02-0.43,0.04-0.64,0.07c-0.11,0.01-0.22,0.02-0.32,0.04c-0.28,0.03-0.55,0.07-0.83,0.11
	c-0.35,0.05-0.7,0.1-1.06,0.17c-0.19,0.03-0.38,0.06-0.57,0.1c-0.25,0.04-0.5,0.09-0.75,0.14c-0.01,0-0.02,0-0.03,0
	c-0.34,0.07-0.68,0.14-1.02,0.22c-0.32,0.07-0.63,0.15-0.94,0.23c-0.33,0.08-0.65,0.17-0.97,0.26c-0.02,0-0.04,0.01-0.06,0.02
	c-0.28,0.08-0.55,0.16-0.82,0.25c-0.13,0.04-0.26,0.08-0.39,0.13c-0.16,0.05-0.32,0.1-0.48,0.16c-0.2,0.07-0.4,0.13-0.59,0.21
	c-0.27,0.09-0.54,0.19-0.82,0.3c-0.34,0.13-0.67,0.26-1.01,0.4C8.95,38,8.63,38.14,8.31,38.29c-0.01,0.01-0.03,0.01-0.04,0.02
	c-0.32,0.14-0.64,0.29-0.95,0.44c-0.01,0-0.01,0.01-0.02,0.01C7.13,38.84,6.98,38.91,6.82,39c0,0-0.01,0-0.02,0
	c-0.42,0.18-0.88,0.27-1.36,0.27c-2.01,0-3.64-1.69-3.64-3.78l0.01-0.39c-0.02-0.23-0.02-0.46,0-0.69l0,0
	c0.31-5.01,1.99-9.61,4.65-13.37c3.51-4.98,8.73-8.48,14.71-9.47c0.01,0,0.03,0,0.04,0c0.01,0,0.02,0,0.03,0l0.43-0.07
	c0.29-0.04,0.57-0.08,0.86-0.11c0.15-0.02,0.29-0.03,0.44-0.04c0.29-0.02,0.58-0.04,0.88-0.05c0.28-0.01,0.57-0.02,0.85-0.02
	c0.3,0,0.59,0,0.89,0.02c0.29,0.01,0.59,0.03,0.88,0.05c0.14,0.01,0.29,0.03,0.43,0.04c0.29,0.03,0.58,0.07,0.86,0.11
	c0.14,0.02,0.29,0.04,0.43,0.07c0.01,0,0.03,0,0.03,0c0.01,0,0.03,0,0.04,0c5.98,1,11.19,4.49,14.71,9.47
	c2.65,3.76,4.33,8.36,4.65,13.37v0c0.01,0.22,0.02,0.45,0,0.68L47.63,35.49z"/>
</svg>
