<?xml version="1.0" encoding="utf-8"?>
<!-- Generator: Adobe Illustrator 23.0.1, SVG Export Plug-In . SVG Version: 6.00 Build 0)  -->
<svg version="1.1" id="icons" xmlns="http://www.w3.org/2000/svg" xmlns:xlink="http://www.w3.org/1999/xlink" x="0px" y="0px"
	 viewBox="0 0 50 50" style="enable-background:new 0 0 50 50;" xml:space="preserve">
<style type="text/css">
	.st0{fill-rule:evenodd;clip-rule:evenodd;}
</style>
<path id="exp3" class="st0" d="M47.56,24.97c0,0.24,0,0.47-0.02,0.7c-0.01,0.22-0.02,0.43-0.04,0.64c0,0.05,0,0.09-0.01,0.14
	c-0.02,0.21-0.04,0.41-0.07,0.61c-0.03,0.19-0.06,0.39-0.1,0.58c-0.01,0.08-0.03,0.16-0.04,0.24c-0.03,0.16-0.06,0.32-0.1,0.47
	c-0.03,0.15-0.07,0.3-0.11,0.45c-0.03,0.13-0.07,0.26-0.11,0.4c-0.12,0.39-0.25,0.78-0.4,1.16c-0.06,0.17-0.13,0.33-0.2,0.5
	c-0.04,0.1-0.09,0.2-0.14,0.3c-0.25,0.56-0.54,1.09-0.85,1.61c-0.09,0.14-0.17,0.27-0.26,0.41c-0.04,0.06-0.07,0.11-0.11,0.17
	c-0.07,0.11-0.16,0.23-0.24,0.34c-0.42,0.58-0.88,1.14-1.38,1.65c-0.13,0.14-0.25,0.26-0.39,0.39c-0.29,0.28-0.59,0.55-0.9,0.8
	c-0.11,0.09-0.21,0.18-0.32,0.25c-0.05,0.04-0.1,0.08-0.14,0.11c-0.12,0.09-0.24,0.18-0.36,0.26c-0.14,0.1-0.28,0.2-0.43,0.29
	c-0.27,0.18-0.55,0.35-0.83,0.51c-0.03,0.01-0.05,0.03-0.07,0.04c-0.15,0.08-0.29,0.16-0.44,0.24c-0.15,0.08-0.3,0.15-0.45,0.22
	c0,0-0.01,0-0.02,0.01c-0.09,0.04-0.18,0.08-0.26,0.12c-1.92,0.78-4.12,0.3-5.63-1.14c-0.08-0.07-0.15-0.15-0.23-0.23
	c-1.22-1.3-2.75-2.32-4.47-2.92c-0.32-0.11-0.66-0.22-1-0.3l-0.34-0.08c-0.15-0.03-0.31-0.06-0.46-0.09
	c-0.16-0.03-0.32-0.05-0.47-0.07c-0.15-0.02-0.32-0.03-0.47-0.05c-0.32-0.03-0.64-0.04-0.97-0.04c-0.32,0-0.63,0.01-0.94,0.04
	c-0.16,0.01-0.32,0.03-0.47,0.05c-0.16,0.02-0.32,0.04-0.47,0.07c-0.16,0.03-0.31,0.05-0.46,0.09c-0.11,0.03-0.23,0.05-0.34,0.08
	c-0.34,0.09-0.68,0.19-1,0.3c-1.72,0.6-3.25,1.62-4.47,2.92c-0.07,0.08-0.15,0.15-0.23,0.23c-1.51,1.44-3.7,1.92-5.63,1.14
	c-0.1-0.04-0.19-0.08-0.28-0.13c-0.15-0.07-0.3-0.14-0.45-0.22c-0.15-0.08-0.29-0.15-0.44-0.24c-0.03-0.01-0.05-0.03-0.07-0.04
	c-0.29-0.16-0.56-0.33-0.83-0.51c-0.14-0.09-0.29-0.19-0.43-0.29C8.05,37.08,7.94,37,7.82,36.91c-0.05-0.04-0.1-0.07-0.14-0.11
	c-0.11-0.08-0.22-0.17-0.32-0.25c-0.32-0.25-0.61-0.52-0.9-0.8c-0.14-0.13-0.26-0.25-0.39-0.39c-0.5-0.51-0.96-1.07-1.38-1.65
	c-0.08-0.11-0.17-0.23-0.24-0.34c-0.04-0.06-0.07-0.11-0.11-0.17c-0.09-0.14-0.18-0.27-0.26-0.41c-0.32-0.52-0.6-1.05-0.85-1.61
	c-0.05-0.1-0.09-0.2-0.14-0.3c-0.07-0.16-0.14-0.33-0.2-0.5c-0.15-0.38-0.28-0.77-0.4-1.16c-0.04-0.13-0.07-0.26-0.11-0.4
	c-0.04-0.15-0.08-0.3-0.11-0.45c-0.04-0.15-0.07-0.31-0.1-0.47c-0.02-0.08-0.03-0.16-0.04-0.24c-0.04-0.19-0.07-0.39-0.1-0.58
	c-0.03-0.2-0.05-0.4-0.07-0.61c-0.01-0.04-0.01-0.09-0.01-0.14c-0.02-0.21-0.04-0.42-0.04-0.64c-0.01-0.23-0.02-0.47-0.02-0.7
	c0-0.83,0.07-1.64,0.2-2.43c0.05-0.32,0.11-0.63,0.18-0.94c0.1-0.43,0.21-0.85,0.35-1.26c0.4-1.23,0.96-2.4,1.65-3.46
	c0.25-0.39,0.51-0.76,0.8-1.12l0,0c0.24-0.3,0.48-0.59,0.74-0.87c0.13-0.14,0.26-0.28,0.39-0.41c0.14-0.14,0.27-0.27,0.41-0.4
	c0.23-0.21,0.46-0.42,0.7-0.62c0.48-0.39,0.97-0.75,1.49-1.08c0.31-0.2,0.64-0.36,0.98-0.48c0.22-0.08,0.45-0.14,0.68-0.19
	c0.12-0.03,0.24-0.05,0.35-0.07c0.12-0.02,0.25-0.03,0.37-0.04c0.31-0.02,0.61-0.01,0.92,0.02c0.14,0.02,0.28,0.03,0.41,0.06
	c0.41,0.07,0.81,0.21,1.19,0.39c2.61,1.22,5.46,2.02,8.45,2.31c0.21,0.02,0.42,0.04,0.63,0.06c0.63,0.05,1.27,0.07,1.92,0.07
	c0.65,0,1.3-0.03,1.94-0.07c0.21-0.02,0.42-0.03,0.63-0.06c2.99-0.29,5.84-1.09,8.45-2.31c0.38-0.18,0.78-0.31,1.19-0.39
	c0.14-0.03,0.28-0.04,0.41-0.06c0.31-0.04,0.61-0.04,0.92-0.02c0.12,0.01,0.25,0.02,0.37,0.04c0.12,0.01,0.24,0.03,0.35,0.07
	c0.23,0.05,0.46,0.11,0.68,0.19c0.34,0.12,0.67,0.29,0.98,0.48c0.52,0.33,1.02,0.69,1.49,1.08c0.24,0.2,0.47,0.4,0.7,0.62
	c0.14,0.13,0.28,0.27,0.41,0.4c0.13,0.14,0.26,0.27,0.39,0.41c0.26,0.28,0.5,0.58,0.74,0.87c0,0,0,0,0,0
	c0.28,0.36,0.55,0.74,0.8,1.12c0.69,1.07,1.25,2.23,1.65,3.46c0.13,0.41,0.25,0.83,0.35,1.26c0.07,0.31,0.13,0.62,0.18,0.94
	C47.49,23.33,47.56,24.15,47.56,24.97"/>
</svg>
