<?xml version="1.0" encoding="utf-8"?>
<!-- Generator: Adobe Illustrator 23.0.1, SVG Export Plug-In . SVG Version: 6.00 Build 0)  -->
<svg version="1.1" id="icons" xmlns="http://www.w3.org/2000/svg" xmlns:xlink="http://www.w3.org/1999/xlink" x="0px" y="0px"
	 viewBox="0 0 50 50" style="enable-background:new 0 0 50 50;" xml:space="preserve">
<style type="text/css">
	.st0{fill-rule:evenodd;clip-rule:evenodd;}
</style>
<path id="exp5" class="st0" d="M46.21,33.72c0,0.12,0,0.24,0,0.36v0.06c-0.01,0.31-0.01,0.62-0.03,0.93c0,0.05,0,0.1-0.01,0.16
	c-0.02,0.26-0.06,0.51-0.11,0.75c-0.02,0.12-0.04,0.24-0.07,0.36c-0.03,0.12-0.06,0.25-0.1,0.37c-0.03,0.12-0.07,0.24-0.11,0.35
	c-0.04,0.12-0.08,0.24-0.13,0.35c-0.2,0.53-0.46,1.03-0.76,1.5c-0.07,0.11-0.14,0.21-0.22,0.31c-0.16,0.22-0.33,0.43-0.51,0.64
	c-0.07,0.09-0.16,0.18-0.24,0.26c-0.08,0.08-0.17,0.17-0.25,0.25c-0.17,0.16-0.35,0.32-0.54,0.47c-0.14,0.1-0.27,0.2-0.42,0.3
	c-0.07,0.05-0.16,0.11-0.24,0.16c-0.43,0.27-0.88,0.5-1.35,0.67c-0.11,0.04-0.21,0.08-0.32,0.11c-0.26,0.08-0.53,0.16-0.8,0.21
	c-0.1,0.02-0.2,0.04-0.3,0.06c-0.41,0.07-0.82,0.1-1.25,0.1h-27.5c-0.43,0-0.84-0.04-1.25-0.1c-0.1-0.02-0.2-0.04-0.3-0.06
	c-0.28-0.06-0.54-0.13-0.8-0.21c-0.1-0.04-0.21-0.07-0.32-0.11c-0.47-0.18-0.92-0.41-1.35-0.67c-0.08-0.05-0.16-0.1-0.24-0.16
	c-0.14-0.09-0.28-0.2-0.42-0.3c-0.19-0.15-0.37-0.3-0.54-0.47c-0.09-0.08-0.17-0.16-0.25-0.25c-0.09-0.08-0.17-0.17-0.24-0.26
	c-0.18-0.2-0.35-0.42-0.51-0.64c-0.08-0.1-0.15-0.2-0.22-0.31c-0.3-0.47-0.56-0.97-0.76-1.5c-0.05-0.12-0.09-0.23-0.13-0.35
	c-0.04-0.11-0.08-0.23-0.11-0.35c-0.03-0.12-0.06-0.24-0.1-0.37c-0.03-0.12-0.06-0.24-0.08-0.36c-0.06-0.3-0.1-0.6-0.12-0.91
	c-0.01-0.31-0.02-0.62-0.02-0.93v-0.06c0-0.12,0-0.24,0-0.36c0-10.15,5.36-18.96,13.22-23.36c0.08-0.04,0.15-0.08,0.22-0.13
	c0.75-0.41,1.53-0.78,2.32-1.1c0.01-0.01,0.03-0.02,0.05-0.02c1.32-0.5,2.72-0.82,4.17-0.95c0.33-0.03,0.67-0.06,1-0.07
	c0.18-0.01,0.37-0.01,0.55-0.01c0.15,0,0.31,0,0.46,0.01c0.34,0.01,0.67,0.04,1,0.07c1.45,0.13,2.85,0.45,4.17,0.95
	c0.01,0,0.03,0.01,0.05,0.02c0.79,0.32,1.57,0.7,2.32,1.1c0.07,0.05,0.15,0.09,0.22,0.13C40.84,14.76,46.21,23.57,46.21,33.72"/>
</svg>
