<?xml version="1.0" encoding="utf-8"?>
<!-- Generator: Adobe Illustrator 23.0.1, SVG Export Plug-In . SVG Version: 6.00 Build 0)  -->
<svg version="1.1" id="icons" xmlns="http://www.w3.org/2000/svg" xmlns:xlink="http://www.w3.org/1999/xlink" x="0px" y="0px"
	 viewBox="0 0 50 50" style="enable-background:new 0 0 50 50;" xml:space="preserve">
<style type="text/css">
	.st0{fill-rule:evenodd;clip-rule:evenodd;}
</style>
<path id="exp6" class="st0" d="M47.64,31.95c0,0.16,0,0.32-0.01,0.48c0,0.16-0.01,0.32-0.01,0.48c-0.01,0.32-0.03,0.64-0.06,0.95
	c-0.02,0.24-0.04,0.47-0.07,0.71c-0.01,0.13-0.03,0.26-0.05,0.39c-0.01,0.1-0.03,0.21-0.04,0.31c-0.02,0.15-0.05,0.31-0.07,0.46
	c-0.02,0.13-0.04,0.26-0.06,0.39c0,0.02-0.01,0.05-0.01,0.07c-0.04,0.23-0.09,0.45-0.14,0.67c-0.06,0.29-0.13,0.57-0.2,0.85
	c-0.29,1.11-0.94,2.04-1.81,2.7c-0.87,0.66-1.95,1.04-3.1,1.04h-0.01c-0.64,0-1.26-0.23-1.8-0.58c-4.45-2.89-9.76-4.57-15.46-4.57
	c-5.7,0-11.02,1.68-15.46,4.57c-0.54,0.35-1.16,0.58-1.8,0.58H7.44c-1.15,0-2.23-0.38-3.1-1.04c-0.85-0.64-1.5-1.55-1.79-2.62
	c-0.02-0.07-0.04-0.15-0.06-0.23c-0.01-0.02-0.01-0.05-0.02-0.07c-0.04-0.16-0.08-0.33-0.12-0.49c-0.02-0.07-0.03-0.15-0.05-0.23
	c-0.07-0.36-0.14-0.72-0.2-1.08c-0.02-0.12-0.04-0.25-0.06-0.38c0-0.01,0-0.02,0-0.04c-0.01-0.1-0.03-0.21-0.04-0.31
	c-0.02-0.13-0.04-0.26-0.05-0.39c-0.03-0.23-0.05-0.47-0.07-0.71c-0.03-0.31-0.05-0.63-0.06-0.95c0-0.16-0.01-0.32-0.01-0.48
	c-0.01-0.26-0.01-0.52,0-0.77v-0.02l0.01-0.6c0.02-0.38,0.04-0.76,0.07-1.13c0.02-0.19,0.04-0.38,0.06-0.57
	c0.02-0.17,0.04-0.33,0.06-0.49c0.02-0.15,0.05-0.31,0.07-0.46c1.54-9.63,9.2-17.33,18.8-18.98h0c0.32-0.06,0.64-0.1,0.97-0.14
	c0.56-0.07,1.11-0.12,1.68-0.15c0.16-0.01,0.31-0.01,0.47-0.02c0.25-0.01,0.49-0.01,0.74-0.01c0.24,0,0.48,0,0.71,0.01
	c0.16,0,0.31,0.01,0.47,0.02c0.56,0.03,1.12,0.07,1.68,0.15c0.32,0.04,0.65,0.09,0.97,0.14h0c9.6,1.65,17.26,9.35,18.8,18.98
	c0.03,0.15,0.05,0.3,0.07,0.46c0.02,0.16,0.04,0.33,0.06,0.49c0.02,0.19,0.04,0.38,0.06,0.57c0.03,0.37,0.06,0.76,0.07,1.13
	c0.01,0.2,0.01,0.41,0.01,0.61C47.64,31.76,47.64,31.86,47.64,31.95"/>
</svg>
