<?xml version="1.0" encoding="utf-8"?>
<!-- Generator: Adobe Illustrator 23.0.1, SVG Export Plug-In . SVG Version: 6.00 Build 0)  -->
<svg version="1.1" id="icons" xmlns="http://www.w3.org/2000/svg" xmlns:xlink="http://www.w3.org/1999/xlink" x="0px" y="0px"
	 viewBox="0 0 50 50" style="enable-background:new 0 0 50 50;" xml:space="preserve">
<style type="text/css">
	.st0{fill-rule:evenodd;clip-rule:evenodd;}
</style>
<path id="exp7" class="st0" d="M42.87,21.73l-1.81,1.77c-1,0.98-2.63,0.98-3.63,0l-3.63-3.54c-1-0.98-2.63-0.98-3.63,0l-3.63,3.54
	c-1,0.98-2.63,0.98-3.63,0l-3.63-3.54c-1-0.98-2.63-0.98-3.63,0l-3.63,3.54c-1,0.98-2.63,0.98-3.63,0l-1.81-1.77
	c-1-0.98-2.63-0.98-3.63,0c-1,0.98-1,2.56,0,3.54l5.45,5.3c1,0.98,2.63,0.98,3.63,0l3.63-3.54c1-0.98,2.63-0.98,3.63,0l3.63,3.54
	c1,0.98,2.63,0.98,3.63,0l3.63-3.54c1-0.98,2.63-0.98,3.63,0l3.63,3.54c1,0.98,2.63,0.98,3.63,0l5.45-5.3c1-0.98,1-2.56,0-3.54
	C45.5,20.76,43.88,20.76,42.87,21.73"/>
</svg>
