<?xml version="1.0" encoding="utf-8"?>
<!-- Generator: Adobe Illustrator 23.0.1, SVG Export Plug-In . SVG Version: 6.00 Build 0)  -->
<svg version="1.1" id="Layer_1" xmlns="http://www.w3.org/2000/svg" xmlns:xlink="http://www.w3.org/1999/xlink" x="0px" y="0px"
	 viewBox="0 0 50 50" enable-background="new 0 0 50 50" xml:space="preserve">
<g>
	<g>
		<path fill-rule="evenodd" clip-rule="evenodd" d="M47.6,13.3c-0.6-2.5-2.6-4.4-5.1-4.7C36.6,8,30.7,7.9,24.7,8
			C18.8,7.9,12.8,8,7,8.6c-2.5,0.3-4.5,2.1-5.1,4.7C1,16.9,1,20.8,1,24.5c0,3.7,0,7.6,0.8,11.2c0.6,2.5,2.6,4.4,5.1,4.7
			C12.8,41,18.8,41,24.7,41c5.9,0,11.9,0,17.8-0.7c2.5-0.3,4.5-2.1,5.1-4.7c0.8-3.6,0.8-7.5,0.8-11.2C48.5,20.8,48.5,16.9,47.6,13.3
			L47.6,13.3z M18.6,31.9V16.2c5,2.6,10,5.2,15.1,7.9C28.6,26.6,23.6,29.2,18.6,31.9L18.6,31.9z M18.6,31.9"/>
	</g>
</g>
</svg>
