<?xml version="1.0" encoding="utf-8"?>
<!-- Generator: Adobe Illustrator 23.0.1, SVG Export Plug-In . SVG Version: 6.00 Build 0)  -->
<svg version="1.1" id="icons" xmlns="http://www.w3.org/2000/svg" xmlns:xlink="http://www.w3.org/1999/xlink" x="0px" y="0px"
	 viewBox="0 0 50 50" style="enable-background:new 0 0 50 50;" xml:space="preserve">
<style type="text/css">
	.st0{fill-rule:evenodd;clip-rule:evenodd;}
</style>
<path id="facebook" class="st0" d="M36.61,1.35h-6.96c0,0-0.14-0.01-0.39-0.01c-1.43,0-8.65,0.41-10.61,8.41
	c-0.03,0.09-0.7,2.09-0.71,6.75h-6.6c-0.58,0-1.06,0.49-1.06,1.1v6.29c0,0.6,0.48,1.09,1.06,1.09h7.22v22.58
	c0,0.61,0.47,1.1,1.06,1.1h8.27c0.59,0,1.06-0.49,1.06-1.1V25.01h7.25c0.58,0,1.06-0.49,1.06-1.1V17.6c0-0.61-0.47-1.1-1.06-1.1
	h-7.23v-2.7c0-1.79,1.1-3.72,4.2-3.72h3.45c0.58,0,1.06-0.49,1.06-1.1V2.45C37.67,1.84,37.2,1.35,36.61,1.35"/>
</svg>
