<?xml version="1.0" encoding="utf-8"?>
<!-- Generator: Adobe Illustrator 23.0.1, SVG Export Plug-In . SVG Version: 6.00 Build 0)  -->
<svg version="1.1" id="icons" xmlns="http://www.w3.org/2000/svg" xmlns:xlink="http://www.w3.org/1999/xlink" x="0px" y="0px"
	 viewBox="0 0 50 50" style="enable-background:new 0 0 50 50;" xml:space="preserve">
<style type="text/css">
	.st0{fill-rule:evenodd;clip-rule:evenodd;}
</style>
<path id="exp4" class="st0" d="M46.59,16.86v0.03c0,0.37-0.01,0.74-0.04,1.12v0.01c-0.28,3.72-1.9,8.06-4.79,12.08
	c-1.24,1.73-2.61,3.25-4.04,4.55c-0.17,0.17-0.34,0.33-0.52,0.5c-0.18,0.16-0.36,0.32-0.55,0.48c-0.18,0.15-0.37,0.3-0.57,0.45
	c-0.55,0.43-1.14,0.82-1.75,1.18c-0.04,0.02-0.08,0.05-0.12,0.07c-0.17,0.1-0.34,0.19-0.52,0.29c-0.25,0.13-0.5,0.26-0.76,0.39
	c-1.46,0.75-2.9,1.24-4.27,1.44h-0.01c-0.16,0.03-0.32,0.06-0.48,0.09c-0.48,0.09-0.97,0.16-1.47,0.21
	c-0.16,0.02-0.33,0.03-0.49,0.04c-0.16,0.01-0.32,0.03-0.48,0.03h-0.06c-0.16,0.01-0.32,0.01-0.48,0.02
	c-0.15,0.01-0.31,0.01-0.47,0.01c-0.17,0-0.34,0-0.51-0.01c-0.16,0-0.32-0.01-0.48-0.02h-0.06c-0.16-0.01-0.32-0.02-0.48-0.03
	c-0.16-0.01-0.33-0.03-0.49-0.04c-0.49-0.05-0.98-0.12-1.47-0.21c-0.16-0.03-0.32-0.06-0.48-0.09h-0.01
	c-1.37-0.21-2.82-0.69-4.27-1.44c-0.26-0.12-0.51-0.25-0.76-0.39c-0.18-0.09-0.35-0.19-0.52-0.29c-0.04-0.02-0.08-0.05-0.12-0.07
	c-0.31-0.18-0.61-0.37-0.89-0.57c-0.15-0.1-0.29-0.2-0.43-0.3h0c-0.14-0.1-0.28-0.21-0.42-0.31c-0.19-0.15-0.38-0.3-0.57-0.45
	c-0.19-0.15-0.37-0.31-0.55-0.48c-0.18-0.16-0.35-0.33-0.52-0.5c-1.43-1.3-2.8-2.82-4.04-4.55c-2.88-4.02-4.51-8.36-4.79-12.08
	v-0.01c-0.03-0.38-0.04-0.76-0.04-1.12v-0.03c0.18-3.44,3.03-6.17,6.51-6.17h30.72C43.57,10.69,46.41,13.42,46.59,16.86"/>
</svg>
