<?xml version="1.0" encoding="utf-8"?>
<!-- Generator: Adobe Illustrator 23.0.1, SVG Export Plug-In . SVG Version: 6.00 Build 0)  -->
<svg version="1.1" id="icons" xmlns="http://www.w3.org/2000/svg" xmlns:xlink="http://www.w3.org/1999/xlink" x="0px" y="0px"
	 viewBox="0 0 50 50" style="enable-background:new 0 0 50 50;" xml:space="preserve">
<style type="text/css">
	.st0{fill-rule:evenodd;clip-rule:evenodd;}
</style>
<path id="twitter" class="st0" d="M48.23,9.97c-0.39-0.26-0.89-0.25-1.27,0.03c-0.25,0.19-0.64,0.36-1.09,0.51
	c1.48-1.83,1.5-3.04,1.48-3.35c-0.03-0.39-0.27-0.74-0.62-0.9c-0.36-0.17-0.78-0.13-1.1,0.1c-2.02,1.44-4.03,1.75-5.2,1.79
	c-1.92-1.77-4.39-2.74-7.02-2.74c-5.68,0-10.31,4.61-10.31,10.28c0,0.41,0.02,0.82,0.07,1.23c-9.5-0.24-17.2-9.15-17.27-9.24
	c-0.22-0.29-0.57-0.43-0.93-0.4C4.62,7.31,4.31,7.52,4.13,7.82c-2.42,4.12-1.44,8.02,0.22,10.74c-0.31-0.16-0.68-0.17-1-0.01
	C3,18.73,2.76,19.09,2.75,19.5c-0.07,4.32,1.91,6.91,3.91,8.42c-0.15,0.06-0.28,0.15-0.39,0.27c-0.26,0.29-0.35,0.69-0.24,1.05
	c1.39,4.47,4.65,6.14,6.94,6.77c-2.63,1.85-5.88,2.28-8.34,2.28c-1.58,0-2.67-0.19-2.68-0.19c-0.49-0.09-0.98,0.18-1.19,0.64
	c-0.2,0.46-0.06,0.99,0.35,1.3c4.95,3.71,10.94,4.49,15.09,4.49c3.27,0,5.55-0.47,5.67-0.5c21.29-4.95,22.1-23.97,22.06-27.44
	c3.99-3.65,4.63-5.08,4.72-5.43C48.79,10.7,48.62,10.23,48.23,9.97"/>
</svg>
